<svg id="svg" version="1.1" width="400" height="400" viewBox="0 0 400 400" xmlns="http://www.w3.org/2000/svg" xmlns:xlink="http://www.w3.org/1999/xlink" ><g id="svgg"><path id="path0" d="M187.459 0.171 C 187.357 0.273,185.084 0.543,182.406 0.770 C 175.388 1.367,173.594 1.549,170.313 2.001 C 168.701 2.222,166.680 2.492,165.820 2.599 C 164.961 2.706,163.906 2.944,163.477 3.127 C 163.047 3.310,161.992 3.586,161.133 3.741 C 159.312 4.069,159.348 4.062,155.273 4.874 C 153.555 5.217,151.621 5.707,150.977 5.963 C 150.332 6.220,149.513 6.381,149.156 6.321 C 148.799 6.261,148.393 6.397,148.254 6.622 C 148.115 6.847,147.330 7.031,146.509 7.031 C 145.660 7.031,144.808 7.284,144.531 7.617 C 144.264 7.939,143.671 8.201,143.214 8.199 C 142.374 8.195,137.879 9.561,136.626 10.200 C 136.253 10.391,135.418 10.547,134.771 10.547 C 133.985 10.547,133.594 10.742,133.594 11.133 C 133.594 11.471,133.222 11.731,132.715 11.749 C 131.371 11.794,130.700 11.967,129.053 12.693 C 128.221 13.060,127.188 13.497,126.758 13.663 C 126.328 13.829,125.537 14.139,125.000 14.352 C 124.463 14.564,123.890 14.759,123.728 14.786 C 123.565 14.812,122.560 15.275,121.495 15.815 C 120.429 16.355,119.288 16.797,118.958 16.797 C 118.629 16.797,118.359 16.973,118.359 17.188 C 118.359 17.402,118.008 17.578,117.578 17.578 C 117.148 17.578,116.797 17.764,116.797 17.992 C 116.797 18.219,116.635 18.306,116.438 18.184 C 116.240 18.061,115.835 18.205,115.537 18.503 C 115.239 18.802,114.433 19.169,113.747 19.319 C 113.061 19.470,112.500 19.714,112.500 19.861 C 112.500 20.144,109.619 21.484,109.010 21.484 C 108.812 21.484,108.417 21.706,108.133 21.978 C 107.217 22.854,105.512 23.828,104.897 23.828 C 104.567 23.828,104.297 24.004,104.297 24.219 C 104.297 24.434,103.954 24.609,103.535 24.609 C 103.116 24.609,102.594 24.917,102.375 25.293 C 102.156 25.669,101.969 25.801,101.959 25.586 C 101.949 25.371,101.794 25.427,101.615 25.710 C 101.436 25.992,101.043 26.266,100.742 26.318 C 100.441 26.370,99.229 27.016,98.047 27.755 C 96.865 28.494,95.772 29.099,95.618 29.100 C 95.464 29.101,94.979 29.409,94.539 29.785 C 94.100 30.161,93.611 30.472,93.453 30.475 C 93.294 30.479,92.751 30.918,92.246 31.451 C 91.740 31.983,91.180 32.328,91.001 32.218 C 90.822 32.107,90.216 32.476,89.654 33.038 C 89.092 33.600,88.410 34.092,88.139 34.132 C 87.703 34.196,86.275 35.156,84.880 36.324 C 84.620 36.541,84.225 36.719,84.001 36.719 C 83.777 36.719,83.594 36.883,83.594 37.083 C 83.594 37.283,83.240 37.560,82.807 37.697 C 82.374 37.834,82.121 38.110,82.244 38.309 C 82.367 38.509,82.194 38.672,81.859 38.672 C 81.524 38.672,80.898 39.023,80.469 39.453 C 80.039 39.883,79.592 40.234,79.475 40.234 C 79.358 40.234,78.787 40.690,78.206 41.246 C 77.624 41.802,76.450 42.725,75.597 43.297 C 74.743 43.868,73.768 44.600,73.429 44.922 C 73.091 45.244,72.119 46.090,71.270 46.802 C 68.537 49.093,66.038 51.315,63.720 53.516 C 62.475 54.697,60.461 56.576,59.244 57.692 C 58.027 58.807,57.031 59.916,57.031 60.156 C 57.031 60.396,56.855 60.484,56.641 60.352 C 56.426 60.219,56.248 60.340,56.246 60.621 C 56.244 60.903,55.797 61.484,55.254 61.914 C 54.711 62.344,54.053 62.924,53.793 63.202 C 53.533 63.481,52.960 64.097,52.520 64.571 C 52.080 65.044,51.598 65.750,51.449 66.139 C 51.300 66.528,50.999 66.736,50.781 66.602 C 50.563 66.467,50.267 66.675,50.124 67.065 C 49.889 67.701,46.917 71.476,45.876 72.461 C 45.649 72.676,45.002 73.467,44.439 74.219 C 43.875 74.971,42.875 76.201,42.216 76.953 C 41.557 77.705,41.017 78.459,41.017 78.630 C 41.016 78.800,40.649 79.327,40.200 79.801 C 39.751 80.276,38.745 81.631,37.963 82.813 C 37.182 83.994,36.055 85.458,35.459 86.065 C 34.863 86.673,34.375 87.420,34.375 87.725 C 34.375 88.031,33.979 88.674,33.496 89.153 C 32.562 90.079,32.223 90.609,30.846 93.293 C 30.369 94.224,29.737 95.077,29.442 95.190 C 29.147 95.304,28.906 95.641,28.906 95.940 C 28.906 96.240,28.730 96.484,28.516 96.484 C 28.301 96.484,28.125 96.811,28.125 97.211 C 28.125 97.611,27.701 98.563,27.182 99.327 C 26.663 100.092,25.951 101.323,25.600 102.064 C 25.249 102.804,24.618 103.778,24.199 104.228 C 23.780 104.678,23.438 105.178,23.438 105.339 C 23.438 105.820,20.924 110.731,20.605 110.872 C 20.444 110.944,20.313 111.340,20.313 111.751 C 20.313 112.163,20.166 112.500,19.987 112.500 C 19.808 112.500,19.661 112.744,19.661 113.043 C 19.661 113.608,19.361 114.295,16.571 120.117 C 15.644 122.051,14.770 124.116,14.627 124.707 C 14.485 125.298,14.201 125.781,13.997 125.781 C 13.793 125.781,13.718 125.931,13.831 126.114 C 13.945 126.297,13.691 127.125,13.269 127.955 C 12.846 128.784,12.500 129.741,12.500 130.083 C 12.500 130.424,12.335 130.870,12.133 131.074 C 11.931 131.278,11.673 131.958,11.561 132.586 C 11.448 133.213,11.218 133.828,11.049 133.953 C 10.880 134.078,10.734 134.355,10.725 134.570 C 10.716 134.785,10.518 135.400,10.287 135.938 C 9.532 137.688,8.984 139.684,8.984 140.685 C 8.984 141.225,8.868 141.783,8.725 141.926 C 8.296 142.355,7.031 146.200,7.031 147.075 C 7.031 147.524,6.870 148.058,6.673 148.262 C 6.476 148.466,6.225 149.160,6.116 149.805 C 5.715 152.171,5.082 155.146,4.926 155.401 C 4.837 155.546,4.656 156.354,4.522 157.197 C 4.389 158.040,4.100 158.946,3.881 159.210 C 3.661 159.475,3.597 160.147,3.736 160.705 C 3.892 161.326,3.828 161.719,3.570 161.719 C 3.339 161.719,3.252 161.985,3.376 162.310 C 3.501 162.635,3.386 163.162,3.120 163.483 C 2.837 163.823,2.733 164.544,2.868 165.220 C 2.995 165.856,2.927 166.483,2.715 166.613 C 2.504 166.744,2.423 167.000,2.535 167.182 C 2.648 167.364,2.581 167.931,2.386 168.443 C 2.192 168.955,1.916 170.508,1.773 171.894 C 1.630 173.280,1.233 176.611,0.890 179.297 C 0.547 181.982,0.192 187.607,0.102 191.795 C -0.069 199.732,0.273 201.951,0.578 194.883 C 1.037 184.256,2.176 172.171,3.097 168.164 C 3.294 167.305,3.670 165.283,3.932 163.672 C 4.565 159.771,6.478 151.252,7.484 147.852 C 8.992 142.756,11.459 134.964,11.751 134.375 C 11.911 134.053,12.606 132.119,13.297 130.078 C 13.988 128.037,14.706 126.200,14.894 125.996 C 15.081 125.792,15.234 125.418,15.234 125.164 C 15.234 124.911,16.127 122.793,17.218 120.457 C 18.310 118.122,19.444 115.674,19.739 115.018 C 21.305 111.541,22.681 108.681,23.206 107.813 C 23.531 107.275,25.037 104.639,26.554 101.953 C 28.070 99.268,29.478 96.807,29.683 96.484 C 29.887 96.162,30.709 94.844,31.508 93.555 C 32.306 92.266,33.078 91.123,33.222 91.016 C 33.367 90.908,33.756 90.293,34.088 89.648 C 34.420 89.004,35.015 88.087,35.412 87.612 C 35.808 87.136,36.748 85.856,37.500 84.767 C 40.423 80.535,42.279 78.125,42.616 78.125 C 42.810 78.125,42.969 77.891,42.969 77.604 C 42.969 77.318,43.546 76.483,44.252 75.749 C 44.958 75.015,46.221 73.535,47.060 72.461 C 47.898 71.387,48.859 70.226,49.194 69.880 C 49.530 69.535,50.508 68.395,51.367 67.345 C 53.749 64.437,64.834 53.185,66.602 51.880 C 67.461 51.246,69.131 49.865,70.313 48.811 C 73.745 45.749,82.857 38.554,83.984 38.015 C 84.307 37.861,84.911 37.418,85.328 37.031 C 85.744 36.645,86.271 36.325,86.499 36.322 C 86.727 36.318,87.529 35.773,88.281 35.110 C 89.033 34.447,90.176 33.634,90.820 33.304 C 91.465 32.974,92.080 32.592,92.188 32.456 C 92.295 32.321,93.613 31.441,95.117 30.501 C 96.621 29.562,98.291 28.497,98.828 28.135 C 99.365 27.772,101.775 26.496,104.184 25.299 C 106.592 24.101,109.053 22.797,109.653 22.401 C 111.481 21.191,118.040 18.122,121.754 16.740 C 123.002 16.275,124.375 15.676,124.805 15.409 C 125.234 15.142,127.256 14.366,129.297 13.684 C 131.338 13.002,133.313 12.281,133.686 12.081 C 134.059 11.882,134.718 11.719,135.151 11.719 C 135.584 11.719,135.938 11.543,135.938 11.328 C 135.938 11.113,136.158 10.938,136.427 10.938 C 136.697 10.938,139.026 10.262,141.603 9.437 C 144.180 8.612,147.256 7.719,148.438 7.454 C 149.619 7.188,150.850 6.872,151.172 6.751 C 151.882 6.486,152.284 6.397,155.238 5.859 C 156.507 5.628,157.713 5.335,157.918 5.208 C 158.123 5.082,159.482 4.847,160.938 4.687 C 162.394 4.528,164.528 4.125,165.679 3.793 C 166.831 3.461,169.531 2.985,171.680 2.736 C 173.828 2.486,177.344 2.041,179.492 1.745 C 190.198 0.273,209.969 0.278,220.508 1.756 C 222.656 2.057,225.645 2.417,227.148 2.555 C 228.652 2.693,230.850 3.036,232.031 3.317 C 233.213 3.598,235.674 4.033,237.500 4.283 C 239.326 4.532,241.348 4.888,241.992 5.073 C 242.637 5.258,244.219 5.612,245.508 5.859 C 246.797 6.107,249.961 6.929,252.539 7.686 C 255.117 8.443,258.143 9.305,259.263 9.601 C 260.383 9.897,262.053 10.469,262.974 10.873 C 263.895 11.277,266.494 12.188,268.750 12.899 C 271.006 13.610,273.027 14.322,273.242 14.483 C 273.457 14.643,275.479 15.517,277.734 16.425 C 283.535 18.759,299.339 26.657,300.789 27.947 C 301.116 28.237,301.731 28.616,302.156 28.788 C 302.981 29.122,313.276 35.966,318.677 39.771 C 320.464 41.029,322.703 42.791,323.654 43.686 C 324.605 44.580,325.523 45.312,325.694 45.312 C 325.866 45.312,326.966 46.189,328.140 47.261 C 331.023 49.894,331.210 50.055,333.044 51.469 C 336.241 53.936,346.379 64.368,351.165 70.117 C 352.059 71.191,353.613 73.013,354.618 74.164 C 355.623 75.316,356.616 76.618,356.825 77.057 C 357.033 77.495,357.696 78.409,358.296 79.088 C 359.549 80.503,364.473 87.352,366.211 90.097 C 366.855 91.115,367.646 92.332,367.969 92.801 C 368.291 93.270,368.900 94.203,369.323 94.874 C 369.745 95.545,370.228 96.094,370.397 96.094 C 370.565 96.094,370.703 96.374,370.703 96.717 C 370.703 97.060,371.030 97.807,371.429 98.377 C 372.442 99.826,375.991 106.117,377.632 109.375 C 378.010 110.127,378.416 110.830,378.532 110.938 C 378.649 111.045,379.292 112.452,379.961 114.065 C 380.630 115.678,381.985 118.691,382.972 120.760 C 383.958 122.830,384.766 124.685,384.766 124.883 C 384.766 125.082,385.094 125.936,385.495 126.782 C 385.896 127.628,386.621 129.551,387.106 131.055 C 387.591 132.559,388.141 133.956,388.330 134.160 C 388.518 134.364,388.672 134.902,388.672 135.355 C 388.672 135.808,388.916 136.513,389.214 136.921 C 389.513 137.329,389.663 137.907,389.548 138.207 C 389.433 138.506,389.506 138.865,389.709 139.004 C 390.045 139.234,390.864 141.674,392.416 147.070 C 392.988 149.058,393.859 152.687,394.524 155.859 C 394.727 156.826,395.173 158.848,395.514 160.352 C 396.785 165.949,398.281 176.984,398.850 184.961 C 399.095 188.398,399.432 192.266,399.598 193.555 L 399.901 195.898 399.950 193.225 C 400.001 190.513,399.529 183.925,398.826 177.539 C 398.613 175.605,398.337 172.936,398.212 171.606 C 397.909 168.380,397.850 168.033,397.564 167.747 C 397.430 167.612,397.414 167.255,397.530 166.954 C 397.645 166.653,397.542 166.406,397.300 166.406 C 397.025 166.406,396.953 166.038,397.106 165.427 C 397.254 164.838,397.087 163.889,396.689 163.050 C 396.306 162.243,396.125 161.256,396.261 160.714 C 396.391 160.197,396.333 159.465,396.133 159.087 C 395.801 158.459,395.013 155.424,394.279 151.953 C 393.943 150.368,393.882 150.105,393.753 149.707 C 393.700 149.546,393.684 149.264,393.717 149.080 C 393.750 148.896,393.627 148.545,393.442 148.299 C 393.258 148.053,393.070 147.244,393.026 146.501 C 392.981 145.759,392.707 144.880,392.418 144.548 C 391.929 143.987,391.714 143.208,391.149 139.938 C 391.028 139.238,390.773 138.568,390.582 138.450 C 390.391 138.332,390.234 137.881,390.234 137.449 C 390.234 137.017,389.956 136.384,389.615 136.043 C 389.268 135.696,389.070 135.029,389.166 134.528 C 389.267 134.003,389.119 133.549,388.809 133.430 C 388.519 133.319,388.281 132.695,388.281 132.044 C 388.281 131.392,388.105 130.859,387.891 130.859 C 387.676 130.859,387.500 130.518,387.500 130.101 C 387.500 129.684,387.324 129.234,387.109 129.102 C 386.895 128.969,386.719 128.448,386.719 127.944 C 386.719 127.439,386.383 126.351,385.973 125.525 C 384.552 122.662,383.536 120.196,383.482 119.475 C 383.452 119.076,383.201 118.750,382.925 118.750 C 382.648 118.750,382.422 118.501,382.422 118.196 C 382.422 117.892,381.972 116.746,381.422 115.651 C 380.872 114.556,380.348 113.280,380.259 112.816 C 380.170 112.351,379.873 111.829,379.599 111.656 C 379.325 111.482,379.255 111.337,379.442 111.334 C 379.630 111.331,379.599 111.107,379.375 110.836 C 379.150 110.565,378.249 108.965,377.371 107.280 C 376.494 105.594,375.426 103.723,374.998 103.122 C 374.569 102.520,374.216 101.879,374.212 101.698 C 374.208 101.516,373.680 100.594,373.040 99.648 C 372.399 98.703,371.875 97.604,371.875 97.207 C 371.875 96.809,371.699 96.484,371.484 96.484 C 371.270 96.484,371.094 96.260,371.094 95.985 C 371.094 95.711,370.742 95.185,370.313 94.817 C 369.883 94.449,369.531 93.883,369.531 93.559 C 369.531 93.234,369.349 92.969,369.127 92.969 C 368.904 92.969,368.383 92.178,367.969 91.211 C 367.554 90.244,367.037 89.453,366.819 89.453 C 366.601 89.453,366.084 88.794,365.671 87.988 C 365.258 87.183,364.463 86.097,363.905 85.576 C 363.347 85.056,362.891 84.327,362.891 83.958 C 362.891 83.589,362.602 83.176,362.249 83.040 C 361.896 82.905,361.709 82.692,361.835 82.566 C 362.066 82.335,361.754 81.868,360.352 80.346 C 359.922 79.880,358.837 78.530,357.941 77.347 C 353.998 72.137,351.990 69.675,350.121 67.757 C 349.651 67.275,349.373 66.773,349.503 66.643 C 349.633 66.513,349.447 66.406,349.089 66.406 C 348.730 66.406,348.481 66.260,348.535 66.082 C 348.589 65.903,347.534 64.732,346.191 63.479 C 344.849 62.226,343.750 60.994,343.750 60.740 C 343.750 60.320,340.579 57.403,339.789 57.096 C 339.604 57.025,339.453 56.707,339.453 56.390 C 339.453 56.073,339.290 55.914,339.090 56.038 C 338.890 56.162,337.967 55.381,337.039 54.303 C 336.111 53.226,335.121 52.344,334.840 52.344 C 334.559 52.344,334.438 52.168,334.570 51.953 C 334.703 51.738,334.652 51.563,334.456 51.563 C 334.261 51.563,333.169 50.684,332.031 49.609 C 330.893 48.535,329.853 47.656,329.720 47.656 C 329.587 47.656,328.653 46.865,327.644 45.898 C 326.635 44.932,325.626 44.141,325.402 44.141 C 325.178 44.141,324.613 43.701,324.146 43.164 C 323.679 42.627,323.065 42.188,322.781 42.188 C 322.498 42.188,322.259 41.968,322.251 41.699 C 322.236 41.211,319.550 39.115,318.262 38.587 C 317.886 38.433,317.578 38.115,317.578 37.880 C 317.578 37.646,317.401 37.563,317.185 37.697 C 316.968 37.831,316.686 37.665,316.557 37.329 C 316.428 36.994,316.084 36.719,315.792 36.719 C 315.500 36.719,314.684 36.235,313.977 35.645 C 312.674 34.554,312.024 34.104,310.009 32.899 C 309.391 32.529,308.399 31.831,307.805 31.348 C 307.210 30.864,306.529 30.469,306.291 30.469 C 306.054 30.469,305.859 30.293,305.859 30.078 C 305.859 29.863,305.596 29.688,305.273 29.688 C 304.951 29.688,304.688 29.541,304.688 29.362 C 304.688 29.183,304.465 29.036,304.193 29.036 C 303.921 29.036,302.823 28.436,301.752 27.702 C 300.681 26.968,299.543 26.309,299.222 26.238 C 298.902 26.167,298.509 25.904,298.350 25.652 C 298.190 25.401,298.056 25.334,298.053 25.504 C 298.050 25.673,297.827 25.620,297.559 25.386 C 296.969 24.870,293.695 23.085,290.234 21.392 C 288.838 20.709,287.607 20.038,287.500 19.901 C 287.393 19.764,286.821 19.533,286.230 19.389 C 285.640 19.244,285.156 18.973,285.156 18.786 C 285.156 18.599,284.365 18.212,283.398 17.927 C 282.432 17.641,281.641 17.289,281.641 17.145 C 281.641 17.000,281.235 16.780,280.739 16.655 C 280.243 16.531,279.189 16.158,278.397 15.827 C 277.605 15.496,276.824 15.211,276.662 15.194 C 276.500 15.177,275.928 14.931,275.391 14.647 C 273.440 13.616,270.620 12.464,269.494 12.239 C 268.861 12.112,268.253 11.863,268.143 11.685 C 268.034 11.508,267.714 11.450,267.433 11.558 C 267.152 11.666,266.697 11.483,266.421 11.151 C 266.145 10.819,265.414 10.547,264.796 10.547 C 264.178 10.547,263.672 10.391,263.672 10.201 C 263.672 10.010,263.188 9.758,262.598 9.640 C 259.551 9.031,255.814 7.924,255.396 7.505 C 255.135 7.244,254.244 7.031,253.414 7.031 C 252.585 7.031,251.993 6.892,252.098 6.722 C 252.204 6.551,251.994 6.388,251.633 6.358 C 251.272 6.329,249.395 5.950,247.461 5.518 C 244.409 4.835,242.662 4.478,240.734 4.142 C 240.472 4.096,240.135 3.937,239.985 3.787 C 239.836 3.638,239.050 3.516,238.239 3.516 C 237.428 3.516,236.672 3.365,236.559 3.182 C 236.445 2.998,235.336 2.738,234.094 2.602 C 232.852 2.467,231.484 2.286,231.055 2.200 C 230.625 2.114,229.131 1.921,227.734 1.771 C 226.338 1.621,224.580 1.423,223.828 1.331 C 217.298 0.532,212.050 0.260,200.756 0.133 C 193.545 0.052,187.561 0.069,187.459 0.171 M164.453 100.423 C 222.783 100.559,271.211 100.777,272.070 100.908 L 273.633 101.146 272.266 100.693 C 271.243 100.354,244.131 100.232,164.648 100.208 L 58.398 100.175 164.453 100.423 M55.028 101.174 C 54.248 101.586,53.147 102.501,52.580 103.208 C 52.014 103.914,51.374 104.708,51.158 104.973 C 50.942 105.237,50.679 106.028,50.574 106.731 L 50.383 108.008 50.839 106.836 C 52.097 103.602,54.357 101.434,57.171 100.763 C 58.231 100.511,58.265 100.467,57.422 100.448 C 56.885 100.435,55.807 100.762,55.028 101.174 M275.977 101.851 C 276.406 101.959,277.586 102.263,278.599 102.525 C 279.611 102.788,280.357 102.869,280.255 102.705 C 280.061 102.390,276.464 101.531,275.664 101.608 C 275.406 101.633,275.547 101.742,275.977 101.851 M282.422 103.735 C 283.174 104.075,285.679 105.288,287.988 106.431 C 290.298 107.575,292.188 108.449,292.188 108.375 C 292.188 107.847,284.153 103.877,282.031 103.357 C 281.438 103.211,281.592 103.360,282.422 103.735 M50.031 108.909 C 49.986 110.207,50.807 113.251,51.280 113.544 C 51.514 113.688,51.565 113.602,51.402 113.338 C 51.248 113.088,50.883 111.786,50.592 110.446 C 50.300 109.105,50.048 108.413,50.031 108.909 M292.773 108.861 C 292.988 109.069,294.131 109.901,295.313 110.709 C 296.909 111.801,297.143 111.894,296.221 111.070 C 295.078 110.048,291.889 108.005,292.773 108.861 M299.609 114.258 C 300.776 115.439,301.819 116.406,301.926 116.406 C 302.034 116.406,301.167 115.439,300.000 114.258 C 298.833 113.076,297.790 112.109,297.683 112.109 C 297.576 112.109,298.442 113.076,299.609 114.258 M51.967 114.844 C 52.748 116.371,55.886 121.064,56.294 121.317 C 56.496 121.441,55.663 119.992,54.443 118.096 C 52.141 114.519,51.102 113.155,51.967 114.844 M302.344 116.668 C 302.344 116.828,302.948 117.582,303.686 118.343 C 306.440 121.183,309.469 125.748,312.116 131.052 C 315.156 137.143,315.715 137.780,313.205 132.293 C 310.762 126.954,302.344 114.842,302.344 116.668 M57.638 123.730 C 59.726 126.948,60.278 127.734,60.448 127.734 C 60.552 127.734,60.323 127.251,59.940 126.660 C 57.852 123.442,57.300 122.656,57.130 122.656 C 57.026 122.656,57.255 123.140,57.638 123.730 M60.800 128.613 C 62.394 131.210,69.932 142.681,70.631 143.573 C 71.673 144.902,71.353 144.231,69.875 141.985 C 69.312 141.129,67.049 137.661,64.845 134.277 C 62.642 130.894,60.763 128.125,60.670 128.125 C 60.577 128.125,60.636 128.345,60.800 128.613 M314.899 137.109 C 314.899 137.432,315.050 138.047,315.234 138.477 C 315.446 138.969,315.570 139.041,315.570 138.672 C 315.570 138.350,315.419 137.734,315.234 137.305 C 315.023 136.812,314.899 136.740,314.899 137.109 M315.658 140.039 C 315.647 140.469,315.807 141.084,316.016 141.406 C 316.517 142.183,316.517 141.207,316.016 140.039 L 315.680 139.258 315.658 140.039 M137.926 141.439 C 125.340 143.910,123.872 161.215,135.742 167.182 L 137.695 168.164 199.836 168.164 L 261.977 168.164 264.094 167.200 C 276.267 161.656,274.657 143.842,261.763 141.412 C 259.145 140.919,140.445 140.945,137.926 141.439 M316.480 142.969 C 316.490 143.506,316.633 144.473,316.797 145.117 L 317.095 146.289 317.114 144.922 C 317.124 144.170,316.982 143.203,316.797 142.773 C 316.492 142.065,316.463 142.083,316.480 142.969 M317.294 148.047 C 317.294 149.014,317.370 149.409,317.463 148.926 C 317.556 148.442,317.556 147.651,317.463 147.168 C 317.370 146.685,317.294 147.080,317.294 148.047 M72.904 147.363 C 74.208 149.533,80.544 158.984,80.693 158.984 C 80.902 158.984,79.347 156.507,75.483 150.684 C 74.093 148.589,72.878 146.875,72.783 146.875 C 72.688 146.875,72.742 147.095,72.904 147.363 M317.680 198.633 C 317.645 244.590,317.534 250.268,316.559 256.055 C 316.054 259.054,316.743 257.193,317.428 253.708 C 318.170 249.934,318.696 158.770,318.012 152.503 C 317.850 151.019,317.701 171.777,317.680 198.633 M81.209 159.996 C 81.462 160.523,81.655 176.819,81.752 205.894 C 81.899 249.618,81.928 251.082,82.703 254.492 C 83.663 258.716,83.842 258.125,82.939 253.711 C 82.402 251.086,81.802 190.284,82.027 161.305 C 82.029 160.970,81.758 160.355,81.424 159.938 C 80.832 159.199,80.826 159.200,81.209 159.996 M138.086 186.709 C 125.353 190.041,123.632 206.360,135.385 212.308 L 137.695 213.477 200.000 213.477 L 262.305 213.477 264.453 212.369 C 275.419 206.719,275.248 192.502,264.154 187.377 L 262.305 186.523 200.781 186.463 C 166.943 186.429,138.730 186.540,138.086 186.709 M0.106 203.906 C 0.106 204.873,0.183 205.269,0.276 204.785 C 0.369 204.302,0.369 203.511,0.276 203.027 C 0.183 202.544,0.106 202.939,0.106 203.906 M399.501 207.227 C 398.604 222.215,397.198 233.171,394.864 243.359 C 393.348 249.979,392.909 251.775,392.578 252.734 C 392.393 253.271,391.853 255.029,391.379 256.641 C 390.905 258.252,390.190 260.610,389.790 261.881 C 389.390 263.152,389.068 264.382,389.075 264.615 C 389.097 265.377,390.234 263.544,390.234 262.746 C 390.234 261.850,390.744 260.152,392.009 256.836 C 392.877 254.559,393.192 253.382,393.570 250.999 C 393.670 250.367,393.887 249.751,394.053 249.632 C 394.218 249.512,394.405 248.799,394.468 248.047 C 394.531 247.295,394.732 246.152,394.914 245.508 C 395.634 242.959,396.165 240.774,396.290 239.844 C 396.362 239.307,396.458 238.867,396.503 238.867 C 396.609 238.867,396.883 236.860,396.983 235.352 C 397.026 234.707,397.197 234.080,397.363 233.959 C 397.528 233.838,397.736 232.695,397.823 231.420 C 397.910 230.145,398.191 228.527,398.446 227.825 C 398.701 227.123,398.801 226.118,398.669 225.591 C 398.537 225.065,398.618 223.793,398.849 222.766 C 399.337 220.594,399.610 217.132,399.878 209.728 C 400.126 202.872,399.865 201.141,399.501 207.227 M0.227 211.328 C 0.418 217.306,0.477 217.987,1.404 224.805 C 1.726 227.168,2.040 229.717,2.102 230.469 C 2.313 233.034,2.831 236.523,3.058 236.907 C 3.361 237.423,3.559 238.635,3.552 239.941 C 3.549 240.532,3.693 241.016,3.871 241.016 C 4.049 241.016,4.495 242.729,4.863 244.824 C 5.231 246.919,5.694 248.938,5.891 249.311 C 6.088 249.684,6.251 250.387,6.252 250.874 C 6.254 251.360,6.516 252.260,6.836 252.873 C 7.156 253.486,7.316 254.153,7.191 254.355 C 7.066 254.557,7.243 255.147,7.584 255.667 C 7.924 256.188,8.203 256.879,8.203 257.205 C 8.203 257.866,9.610 262.554,10.261 264.063 C 10.492 264.600,10.647 265.246,10.604 265.498 C 10.561 265.750,10.707 266.068,10.927 266.205 C 11.148 266.341,11.328 266.694,11.328 266.990 C 11.328 267.285,11.531 268.022,11.779 268.627 C 12.027 269.232,12.277 269.902,12.335 270.117 C 12.492 270.699,14.109 274.702,14.502 275.483 C 14.690 275.856,14.844 276.427,14.844 276.753 C 14.844 277.078,15.013 277.344,15.219 277.344 C 15.426 277.344,15.796 278.091,16.041 279.004 C 16.286 279.917,16.613 280.752,16.767 280.859 C 17.111 281.100,18.573 284.216,18.966 285.547 C 19.125 286.084,19.641 287.139,20.113 287.891 C 21.125 289.504,24.781 296.925,24.795 297.395 C 24.800 297.573,25.088 297.926,25.434 298.179 C 25.780 298.432,26.524 299.548,27.087 300.659 C 27.650 301.770,28.289 302.790,28.508 302.925 C 28.727 303.060,28.906 303.433,28.906 303.753 C 28.906 304.073,30.227 306.304,31.842 308.711 C 33.457 311.117,34.995 313.415,35.260 313.817 C 35.525 314.220,35.974 314.791,36.258 315.087 C 36.542 315.383,36.632 315.625,36.458 315.625 C 36.283 315.625,36.622 316.072,37.211 316.617 C 37.800 317.163,38.281 317.858,38.281 318.160 C 38.281 318.463,38.514 318.852,38.798 319.024 C 39.083 319.195,39.742 319.941,40.263 320.680 C 41.362 322.239,42.520 323.696,43.373 324.593 C 43.703 324.939,44.461 325.862,45.057 326.644 C 45.653 327.426,47.009 329.000,48.070 330.142 C 49.132 331.284,50.000 332.351,50.000 332.512 C 50.000 332.672,51.406 334.214,53.125 335.938 C 54.844 337.661,56.250 339.165,56.250 339.281 C 56.250 339.613,59.797 343.039,61.623 344.469 C 62.537 345.186,63.186 345.932,63.065 346.128 C 62.944 346.324,63.039 346.484,63.276 346.484 C 63.702 346.484,65.478 348.018,69.273 351.660 C 70.336 352.681,71.312 353.517,71.443 353.519 C 71.573 353.521,72.327 354.136,73.118 354.886 C 73.910 355.636,74.730 356.250,74.940 356.250 C 75.151 356.250,75.957 356.865,76.731 357.617 C 77.506 358.369,78.268 358.986,78.425 358.988 C 78.582 358.990,79.358 359.605,80.150 360.355 C 80.941 361.105,81.838 361.719,82.143 361.719 C 82.447 361.719,83.248 362.246,83.923 362.891 C 84.597 363.535,85.294 364.063,85.470 364.063 C 85.647 364.063,86.291 364.584,86.901 365.220 C 87.511 365.857,88.159 366.286,88.341 366.174 C 88.523 366.062,88.672 366.156,88.672 366.383 C 88.672 366.611,88.936 366.797,89.258 366.797 C 89.580 366.797,89.844 366.969,89.844 367.180 C 89.844 367.391,90.283 367.674,90.820 367.808 C 91.357 367.943,91.797 368.210,91.797 368.402 C 91.797 368.593,92.027 368.750,92.309 368.750 C 92.591 368.750,93.199 369.102,93.660 369.531 C 94.121 369.961,94.606 370.312,94.738 370.313 C 94.870 370.313,95.241 370.576,95.564 370.898 C 95.886 371.221,96.455 371.484,96.829 371.484 C 97.203 371.484,97.883 371.833,98.341 372.259 C 99.626 373.457,105.333 376.563,106.248 376.563 C 106.464 376.563,106.641 376.723,106.641 376.920 C 106.641 377.297,112.839 380.469,113.576 380.469 C 113.813 380.469,114.239 380.698,114.523 380.979 C 115.190 381.638,121.875 384.433,121.875 384.053 C 121.875 383.895,120.693 383.243,119.248 382.605 C 115.699 381.038,104.595 375.417,102.034 373.889 C 100.896 373.211,99.885 372.656,99.787 372.656 C 98.404 372.656,77.036 357.614,71.990 353.089 C 71.301 352.471,69.455 350.878,67.888 349.549 C 64.269 346.479,53.669 335.870,50.387 332.031 C 49.009 330.420,47.490 328.662,47.010 328.125 C 46.530 327.588,45.301 326.094,44.278 324.805 C 43.255 323.516,42.270 322.285,42.088 322.070 C 41.907 321.855,40.592 320.098,39.166 318.164 C 37.740 316.230,36.430 314.590,36.256 314.518 C 36.081 314.447,35.938 314.229,35.938 314.034 C 35.938 313.839,35.158 312.541,34.205 311.149 C 32.281 308.339,26.563 298.939,26.562 298.587 C 26.562 298.464,26.221 297.883,25.803 297.296 C 24.931 296.071,19.692 285.828,18.595 283.203 C 18.191 282.236,17.287 280.215,16.587 278.711 C 15.886 277.207,14.920 274.922,14.440 273.633 C 13.292 270.550,12.910 269.572,12.303 268.164 C 11.688 266.736,8.348 256.122,8.001 254.492 C 7.864 253.848,7.607 252.969,7.430 252.539 C 7.066 251.654,4.430 240.270,4.174 238.477 C 4.082 237.832,3.728 235.898,3.388 234.180 C 2.631 230.358,1.290 219.173,0.952 213.867 C 0.504 206.814,0.030 205.154,0.227 211.328 M138.067 232.032 C 125.549 234.582,123.789 251.743,135.439 257.646 L 137.695 258.789 172.852 258.789 L 208.008 258.789 210.156 257.699 C 220.828 252.282,220.672 238.046,209.885 232.915 L 207.617 231.836 173.633 231.773 C 154.941 231.738,138.937 231.855,138.067 232.032 M83.649 258.594 C 83.649 258.916,83.800 259.531,83.984 259.961 C 84.196 260.453,84.320 260.526,84.320 260.156 C 84.320 259.834,84.169 259.219,83.984 258.789 C 83.773 258.297,83.649 258.224,83.649 258.594 M315.910 258.439 C 315.753 258.596,315.630 259.090,315.637 259.538 C 315.648 260.289,315.680 260.298,316.055 259.653 C 316.492 258.902,316.380 257.969,315.910 258.439 M315.067 261.551 C 314.923 262.124,314.881 262.668,314.973 262.760 C 315.065 262.852,315.258 262.459,315.402 261.886 C 315.545 261.314,315.588 260.770,315.496 260.678 C 315.404 260.586,315.211 260.979,315.067 261.551 M84.375 261.248 C 84.375 261.894,85.987 266.096,86.166 265.917 C 86.318 265.766,84.838 261.280,84.534 260.970 C 84.447 260.881,84.375 261.006,84.375 261.248 M314.046 264.538 C 312.970 267.234,311.359 270.601,310.015 272.965 C 309.247 274.316,308.784 275.319,308.985 275.195 C 309.944 274.602,315.181 263.879,314.731 263.429 C 314.636 263.334,314.328 263.833,314.046 264.538 M388.441 265.893 C 388.317 266.283,387.983 267.217,387.700 267.969 C 387.416 268.721,386.627 270.830,385.945 272.656 C 385.263 274.482,384.132 277.207,383.432 278.711 C 382.732 280.215,381.824 282.236,381.413 283.203 C 378.455 290.162,370.278 304.725,365.350 311.812 C 364.642 312.831,364.063 313.841,364.063 314.058 C 364.063 314.276,363.921 314.453,363.748 314.453 C 363.575 314.453,362.389 315.975,361.111 317.834 C 359.834 319.694,358.431 321.583,357.994 322.033 C 357.556 322.483,356.593 323.643,355.853 324.609 C 351.461 330.346,339.853 342.683,333.782 348.066 C 328.303 352.925,326.197 354.723,324.414 356.064 C 323.340 356.872,322.197 357.782,321.875 358.086 C 321.553 358.390,319.883 359.631,318.164 360.843 C 316.445 362.056,314.951 363.158,314.844 363.292 C 314.612 363.582,307.405 368.359,307.200 368.359 C 307.122 368.359,305.602 369.298,303.822 370.445 C 302.042 371.592,300.410 372.602,300.195 372.691 C 298.618 373.340,292.969 376.697,292.969 376.985 C 292.969 377.493,293.247 377.435,294.377 376.695 C 295.516 375.949,297.142 375.037,299.512 373.816 C 300.425 373.346,301.172 372.842,301.172 372.698 C 301.172 372.553,302.224 371.913,303.509 371.276 C 304.795 370.639,305.849 369.985,305.853 369.824 C 305.856 369.663,306.123 369.531,306.445 369.531 C 306.768 369.531,307.031 369.355,307.031 369.141 C 307.031 368.926,307.295 368.750,307.617 368.750 C 307.939 368.750,308.203 368.613,308.203 368.445 C 308.203 368.277,308.687 367.932,309.277 367.678 C 310.604 367.107,311.518 366.524,313.280 365.123 C 314.905 363.831,315.034 363.735,316.797 362.490 C 317.549 361.959,318.266 361.524,318.391 361.524 C 318.604 361.523,320.305 360.173,323.170 357.728 C 324.345 356.726,327.167 354.568,328.424 353.711 C 328.739 353.496,330.096 352.266,331.439 350.977 C 332.783 349.688,335.166 347.490,336.736 346.094 C 341.340 341.997,350.000 333.114,350.000 332.489 C 350.000 332.349,350.434 331.794,350.964 331.254 C 351.495 330.715,352.738 329.307,353.726 328.125 C 354.715 326.943,355.863 325.600,356.278 325.140 C 356.692 324.680,357.031 324.109,357.031 323.871 C 357.031 323.632,357.186 323.438,357.375 323.438 C 357.824 323.438,360.997 319.260,361.602 317.873 C 361.860 317.281,362.256 316.797,362.481 316.797 C 362.706 316.797,362.891 316.583,362.891 316.321 C 362.891 316.059,363.292 315.488,363.782 315.051 C 364.559 314.360,366.460 311.470,368.885 307.296 C 369.281 306.613,369.940 305.692,370.350 305.248 C 370.759 304.805,371.094 304.146,371.094 303.783 C 371.094 303.421,371.239 303.125,371.418 303.125 C 371.596 303.125,372.167 302.215,372.687 301.103 C 373.207 299.991,373.809 298.887,374.023 298.650 C 374.587 298.027,375.654 296.165,376.608 294.141 C 377.064 293.174,377.592 292.119,377.782 291.797 C 377.971 291.475,378.282 290.858,378.471 290.427 C 378.660 289.995,379.349 288.736,380.002 287.629 C 380.655 286.522,381.085 285.513,380.959 285.386 C 380.833 285.260,380.964 285.156,381.250 285.156 C 381.536 285.156,381.658 285.044,381.521 284.906 C 381.383 284.769,381.516 284.197,381.816 283.637 C 383.143 281.157,385.156 276.707,385.156 276.252 C 385.156 275.978,385.410 275.364,385.719 274.889 C 386.029 274.413,386.365 273.563,386.466 273.000 C 386.566 272.437,386.820 271.646,387.029 271.242 C 388.429 268.536,389.423 265.652,389.036 265.413 C 388.833 265.288,388.565 265.504,388.441 265.893 M86.335 266.540 C 86.259 270.181,97.978 285.114,104.015 289.068 C 104.782 289.570,104.587 289.314,103.516 288.410 C 96.940 282.867,92.109 277.048,88.581 270.418 C 87.350 268.104,86.339 266.359,86.335 266.540 M307.421 277.051 C 306.846 277.836,306.751 278.109,307.173 277.767 C 307.814 277.246,308.782 275.781,308.486 275.781 C 308.411 275.781,307.932 276.353,307.421 277.051 M302.344 282.792 C 300.088 285.104,297.188 287.751,295.898 288.672 C 293.458 290.416,292.303 291.388,293.359 290.809 C 296.222 289.240,303.339 282.856,305.866 279.590 C 307.188 277.881,306.702 278.323,302.344 282.792 M105.595 290.122 C 105.740 290.358,106.870 291.138,108.105 291.857 C 110.889 293.476,111.566 293.736,109.766 292.495 C 107.385 290.853,105.321 289.679,105.595 290.122 M290.696 292.034 C 289.768 292.590,289.093 293.129,289.195 293.232 C 289.375 293.412,292.578 291.449,292.578 291.159 C 292.578 290.923,292.453 290.981,290.696 292.034 M111.328 293.578 C 111.328 293.851,116.477 296.153,116.665 295.965 C 116.756 295.875,116.163 295.517,115.348 295.171 C 114.534 294.824,113.296 294.283,112.598 293.969 C 111.899 293.654,111.328 293.479,111.328 293.578 M285.156 294.922 C 283.975 295.546,283.118 296.065,283.254 296.075 C 283.615 296.102,287.891 294.112,287.891 293.917 C 287.891 293.579,287.256 293.813,285.156 294.922 M117.578 296.484 C 117.900 296.693,118.428 296.863,118.750 296.863 C 119.271 296.863,119.271 296.821,118.750 296.484 C 118.428 296.276,117.900 296.106,117.578 296.106 C 117.057 296.106,117.057 296.148,117.578 296.484 M280.074 296.820 C 279.105 297.199,277.171 297.727,275.777 297.992 C 274.383 298.257,272.363 298.644,271.289 298.853 C 270.215 299.061,268.369 299.285,267.188 299.349 L 265.039 299.465 267.438 299.537 C 270.803 299.638,281.711 297.304,282.780 296.254 C 283.164 295.877,281.702 296.183,280.074 296.820 M120.313 297.299 C 122.736 298.405,129.292 299.623,132.422 299.549 L 134.961 299.488 131.836 299.193 C 128.657 298.892,125.665 298.398,122.852 297.709 C 121.992 297.498,120.850 297.220,120.313 297.090 L 119.336 296.853 120.313 297.299 M141.602 299.624 C 138.164 299.740,164.443 299.851,200.000 299.871 C 235.557 299.891,264.385 299.840,264.063 299.758 C 263.124 299.517,148.495 299.392,141.602 299.624 M288.477 378.845 C 286.543 379.849,283.423 381.352,281.543 382.187 C 279.663 383.021,278.125 383.861,278.125 384.053 C 278.125 384.245,278.521 384.185,279.004 383.919 C 279.487 383.653,280.139 383.394,280.452 383.342 C 280.765 383.291,281.468 383.039,282.015 382.783 C 282.561 382.527,283.447 382.121,283.984 381.881 C 284.521 381.642,285.193 381.226,285.477 380.957 C 285.761 380.688,286.215 380.469,286.487 380.469 C 287.313 380.469,292.578 377.772,292.578 377.349 C 292.578 376.758,292.300 376.860,288.477 378.845 M122.380 384.473 C 122.478 384.741,122.756 384.917,122.998 384.863 C 123.240 384.810,123.438 384.960,123.438 385.198 C 123.438 385.436,123.681 385.537,123.979 385.423 C 124.276 385.309,124.847 385.432,125.248 385.697 C 125.649 385.961,127.031 386.512,128.320 386.920 C 129.609 387.329,130.942 387.890,131.281 388.167 C 131.620 388.445,132.367 388.672,132.941 388.672 C 133.515 388.672,133.984 388.809,133.984 388.977 C 133.984 389.145,134.819 389.512,135.840 389.792 C 136.860 390.073,138.184 390.486,138.782 390.712 C 139.380 390.937,139.953 391.036,140.056 390.933 C 140.276 390.713,135.581 388.669,134.858 388.671 C 134.587 388.671,134.059 388.507,133.686 388.306 C 133.313 388.104,131.689 387.464,130.078 386.884 C 128.467 386.304,126.143 385.414,124.914 384.907 C 122.340 383.844,122.136 383.809,122.380 384.473 M276.895 384.172 C 276.617 384.451,265.007 388.810,262.403 389.614 C 261.168 389.995,260.042 390.494,259.901 390.723 C 259.730 390.999,259.960 391.046,260.583 390.864 C 261.100 390.713,262.451 390.335,263.584 390.023 C 264.718 389.712,266.086 389.169,266.624 388.817 C 267.162 388.464,267.715 388.288,267.852 388.425 C 267.989 388.561,268.423 388.382,268.816 388.026 C 269.209 387.670,269.531 387.491,269.531 387.629 C 269.531 387.924,273.162 386.581,274.707 385.715 C 275.298 385.383,275.781 385.231,275.781 385.377 C 275.781 385.523,276.001 385.460,276.270 385.237 C 276.538 385.014,276.929 384.830,277.139 384.828 C 277.348 384.826,277.583 384.635,277.660 384.404 C 277.799 383.984,277.250 383.818,276.895 384.172 M140.625 390.948 C 140.625 391.444,141.600 391.797,142.973 391.797 C 143.584 391.797,144.366 392.078,144.709 392.421 C 145.052 392.764,145.563 392.956,145.845 392.848 C 146.127 392.740,146.870 392.876,147.495 393.151 C 149.045 393.833,151.154 394.380,155.017 395.104 C 156.809 395.440,158.567 395.870,158.923 396.061 C 159.279 396.251,160.252 396.407,161.086 396.406 C 161.919 396.406,162.710 396.575,162.843 396.782 C 162.977 396.988,163.965 397.254,165.039 397.372 C 166.113 397.491,169.805 397.956,173.242 398.406 C 176.680 398.856,180.419 399.246,181.552 399.273 C 182.685 399.300,183.684 399.440,183.774 399.584 C 183.863 399.729,186.803 399.862,190.308 399.881 L 196.680 399.915 187.695 399.212 C 179.723 398.588,170.760 397.602,167.969 397.043 C 166.420 396.732,162.854 396.053,160.938 395.705 C 155.962 394.799,146.462 392.425,141.449 390.834 C 140.996 390.690,140.625 390.741,140.625 390.948 M257.813 391.006 C 245.024 395.190,229.459 397.939,210.352 399.390 L 203.320 399.923 209.570 399.798 C 215.414 399.681,217.095 399.578,222.070 399.034 C 224.209 398.801,228.985 398.191,231.445 397.837 C 232.305 397.713,233.931 397.512,235.059 397.390 C 236.187 397.269,237.109 397.015,237.109 396.827 C 237.109 396.638,237.824 396.484,238.698 396.484 C 239.571 396.484,240.602 396.315,240.988 396.109 C 241.373 395.902,242.285 395.636,243.013 395.517 C 245.622 395.090,250.606 393.935,251.953 393.445 C 252.275 393.327,252.671 393.194,252.832 393.149 C 252.993 393.104,253.169 393.030,253.223 392.986 C 253.276 392.942,253.835 392.868,254.465 392.823 C 255.095 392.778,255.680 392.529,255.767 392.269 C 255.854 392.009,256.305 391.794,256.771 391.792 C 258.036 391.784,259.375 391.361,259.375 390.970 C 259.375 390.567,259.138 390.573,257.813 391.006 " stroke="none" fill="#c0c0c0" fill-rule="evenodd"></path><path id="path1" d="M182.134 0.671 C 182.728 0.761,183.607 0.758,184.087 0.666 C 184.568 0.573,184.082 0.499,183.008 0.502 C 181.934 0.505,181.541 0.581,182.134 0.671 M216.119 0.671 C 216.712 0.761,217.591 0.758,218.072 0.666 C 218.552 0.573,218.066 0.499,216.992 0.502 C 215.918 0.505,215.525 0.581,216.119 0.671 M91.797 28.906 C 91.797 29.121,92.061 29.297,92.383 29.297 C 92.705 29.297,92.969 29.121,92.969 28.906 C 92.969 28.691,92.705 28.516,92.383 28.516 C 92.061 28.516,91.797 28.691,91.797 28.906 M75.549 43.029 L 74.805 43.871 75.879 43.180 C 76.987 42.467,77.196 42.188,76.623 42.188 C 76.441 42.188,75.958 42.566,75.549 43.029 M62.221 54.533 C 61.745 55.048,61.495 55.469,61.665 55.469 C 61.834 55.469,62.386 55.029,62.891 54.492 C 63.395 53.955,63.646 53.534,63.447 53.557 C 63.248 53.580,62.697 54.019,62.221 54.533 M337.500 54.883 C 338.763 56.186,339.063 56.422,339.063 56.113 C 339.063 55.849,336.710 53.516,336.443 53.516 C 336.296 53.516,336.771 54.131,337.500 54.883 M57.031 56.608 C 57.031 57.088,57.283 57.422,57.646 57.422 C 58.010 57.422,58.209 57.156,58.134 56.771 C 57.944 55.791,57.031 55.656,57.031 56.608 M343.750 60.823 C 343.750 61.020,344.277 61.687,344.922 62.305 C 345.566 62.922,346.094 63.325,346.094 63.200 C 346.094 63.075,345.566 62.409,344.922 61.719 C 344.277 61.029,343.750 60.626,343.750 60.823 M348.828 63.672 C 348.828 64.106,349.089 64.453,349.414 64.453 C 349.740 64.453,350.000 64.106,350.000 63.672 C 350.000 63.238,349.740 62.891,349.414 62.891 C 349.089 62.891,348.828 63.238,348.828 63.672 M50.000 64.095 C 50.000 65.047,50.913 64.912,51.103 63.932 C 51.178 63.547,50.978 63.281,50.615 63.281 C 50.252 63.281,50.000 63.615,50.000 64.095 M43.534 74.576 C 43.656 74.773,43.534 75.012,43.264 75.108 C 42.994 75.205,42.877 75.397,43.004 75.535 C 43.130 75.673,43.553 75.433,43.943 75.002 C 44.599 74.278,44.602 74.219,43.983 74.219 C 43.615 74.219,43.413 74.380,43.534 74.576 M358.835 78.516 C 359.404 79.375,360.029 80.078,360.223 80.078 C 360.418 80.078,360.221 79.696,359.785 79.228 C 359.350 78.760,358.892 78.057,358.767 77.666 C 358.643 77.274,358.375 76.953,358.171 76.953 C 357.968 76.953,358.267 77.656,358.835 78.516 M363.672 85.126 C 363.672 85.305,363.948 85.681,364.286 85.961 C 364.624 86.242,365.243 87.142,365.661 87.962 C 366.636 89.873,367.001 89.914,366.107 88.013 C 365.438 86.591,363.672 84.497,363.672 85.126 M368.000 91.039 C 367.983 91.374,368.242 91.989,368.576 92.406 C 369.174 93.152,369.178 93.152,368.824 92.383 C 368.627 91.953,368.367 91.338,368.248 91.016 C 368.060 90.509,368.026 90.513,368.000 91.039 M57.171 100.763 C 52.588 101.856,49.570 106.918,50.832 111.395 C 51.412 113.454,60.208 127.533,70.750 143.277 C 71.798 144.843,72.656 146.202,72.656 146.295 C 72.656 146.389,74.202 148.799,76.091 151.651 C 77.981 154.503,80.086 157.723,80.769 158.808 L 82.012 160.780 82.155 205.683 C 82.294 249.095,82.325 250.722,83.102 254.688 C 87.696 278.138,104.720 294.711,128.516 298.898 C 132.584 299.615,267.801 299.662,271.094 298.949 C 272.275 298.692,274.297 298.278,275.586 298.027 C 293.380 294.563,310.746 278.326,315.255 260.938 C 315.506 259.971,315.850 258.828,316.020 258.398 C 316.408 257.420,317.073 253.062,317.421 249.219 C 317.774 245.318,317.735 153.128,317.378 149.509 C 314.823 123.553,294.312 103.058,268.615 100.783 C 263.483 100.329,59.074 100.310,57.171 100.763 M374.273 101.563 C 374.253 101.885,374.577 102.588,374.993 103.125 C 375.724 104.068,375.742 104.071,375.525 103.223 C 375.401 102.739,375.157 102.344,374.983 102.344 C 374.809 102.344,374.586 102.036,374.488 101.660 C 374.362 101.178,374.299 101.149,374.273 101.563 M25.195 102.110 C 24.632 102.786,23.828 104.237,23.828 104.578 C 23.828 104.738,24.283 104.199,24.839 103.381 C 25.794 101.975,26.041 101.095,25.195 102.110 M381.128 115.137 C 381.262 115.513,381.532 116.029,381.728 116.284 C 381.925 116.538,382.249 117.242,382.449 117.846 C 382.786 118.863,382.798 118.843,382.609 117.578 C 382.496 116.826,382.232 116.152,382.022 116.081 C 381.812 116.009,381.641 115.614,381.641 115.202 C 381.641 114.790,381.470 114.453,381.262 114.453 C 381.054 114.453,380.994 114.761,381.128 115.137 M18.066 115.843 C 17.798 116.135,17.578 116.615,17.578 116.911 C 17.578 117.206,17.456 117.570,17.306 117.720 C 17.012 118.014,16.776 119.141,17.008 119.141 C 17.196 119.141,18.790 115.533,18.657 115.409 C 18.601 115.356,18.335 115.552,18.066 115.843 M389.086 134.570 C 389.074 135.398,389.690 136.627,389.962 136.317 C 390.051 136.216,389.893 135.605,389.611 134.961 C 389.222 134.072,389.095 133.978,389.086 134.570 M8.420 140.555 C 8.260 141.269,8.225 141.949,8.342 142.066 C 8.636 142.360,9.102 140.387,8.886 139.763 C 8.790 139.485,8.580 139.842,8.420 140.555 M261.763 141.412 C 274.657 143.842,276.267 161.656,264.094 167.200 L 261.977 168.164 199.836 168.164 L 137.695 168.164 135.742 167.182 C 123.872 161.215,125.340 143.910,137.926 141.439 C 140.445 140.945,259.145 140.919,261.763 141.412 M3.979 157.204 C 4.126 157.368,4.083 157.934,3.882 158.461 C 3.682 158.988,3.672 159.324,3.860 159.208 C 4.434 158.854,4.643 157.439,4.163 157.164 C 3.914 157.022,3.832 157.040,3.979 157.204 M396.248 161.804 C 396.386 162.496,396.683 163.243,396.907 163.464 C 397.190 163.744,397.191 163.540,396.911 162.796 C 396.688 162.207,396.608 161.460,396.732 161.136 C 396.859 160.807,396.746 160.547,396.477 160.547 C 396.144 160.547,396.073 160.932,396.248 161.804 M264.154 187.377 C 275.248 192.502,275.419 206.719,264.453 212.369 L 262.305 213.477 200.000 213.477 L 137.695 213.477 135.385 212.308 C 123.632 206.360,125.353 190.041,138.086 186.709 C 138.730 186.540,166.943 186.429,200.781 186.463 L 262.305 186.523 264.154 187.377 M209.885 232.915 C 220.672 238.046,220.828 252.282,210.156 257.699 L 208.008 258.789 172.852 258.789 L 137.695 258.789 135.439 257.646 C 125.428 252.573,124.694 239.265,134.121 233.740 C 137.642 231.676,137.063 231.705,173.633 231.773 L 207.617 231.836 209.885 232.915 M3.906 241.904 C 3.906 242.464,4.089 243.036,4.313 243.174 C 4.579 243.338,4.627 243.044,4.453 242.318 C 4.093 240.821,3.906 240.680,3.906 241.904 M391.312 258.594 C 391.209 258.916,390.925 259.807,390.680 260.575 C 389.929 262.924,390.213 263.223,391.032 260.945 C 391.456 259.768,391.733 258.625,391.650 258.406 C 391.566 258.187,391.414 258.271,391.312 258.594 M15.252 278.158 C 15.492 278.607,15.766 278.895,15.861 278.800 C 16.135 278.527,15.580 277.344,15.179 277.344 C 14.979 277.344,15.012 277.710,15.252 278.158 M17.578 283.156 C 17.578 283.428,17.842 283.913,18.164 284.235 C 18.913 284.984,18.904 284.416,18.152 283.421 C 17.830 282.996,17.578 282.880,17.578 283.156 M20.629 289.258 C 20.826 289.688,21.086 290.303,21.205 290.625 C 21.393 291.131,21.427 291.128,21.454 290.602 C 21.470 290.267,21.211 289.652,20.877 289.235 C 20.279 288.489,20.275 288.489,20.629 289.258 M378.895 289.475 C 378.658 289.916,378.523 290.451,378.594 290.664 C 378.664 290.876,378.924 290.514,379.171 289.861 C 379.684 288.501,379.531 288.286,378.895 289.475 M21.721 292.024 C 21.405 292.849,21.406 292.855,22.009 293.087 C 22.385 293.231,22.483 293.021,22.354 292.347 C 22.143 291.242,22.041 291.190,21.721 292.024 M377.710 291.602 C 377.691 291.816,377.617 292.288,377.548 292.649 C 377.465 293.079,377.610 293.233,377.968 293.095 C 378.610 292.849,378.641 292.595,378.125 291.797 C 377.917 291.475,377.730 291.387,377.710 291.602 M25.790 298.861 C 25.795 299.165,26.157 299.854,26.595 300.391 L 27.391 301.367 26.732 300.000 C 25.926 298.328,25.779 298.150,25.790 298.861 M373.493 299.467 C 373.023 300.514,373.033 300.545,373.650 299.941 C 374.013 299.586,374.238 299.082,374.152 298.822 C 374.065 298.562,373.768 298.852,373.493 299.467 M27.352 301.803 C 27.364 302.258,28.886 304.199,28.898 303.773 C 28.902 303.592,28.555 302.997,28.125 302.450 C 27.695 301.904,27.348 301.613,27.352 301.803 M47.173 329.492 C 47.611 330.137,48.471 331.104,49.083 331.641 L 50.195 332.617 49.382 331.641 C 48.934 331.104,48.075 330.137,47.471 329.492 L 46.375 328.320 47.173 329.492 M334.745 347.949 L 333.398 349.414 334.863 348.068 C 336.227 346.815,336.508 346.484,336.209 346.484 C 336.144 346.484,335.485 347.144,334.745 347.949 M317.230 362.132 C 316.716 362.560,316.378 362.993,316.480 363.094 C 316.581 363.195,317.076 362.839,317.580 362.303 C 318.676 361.136,318.518 361.059,317.230 362.132 M82.199 362.500 C 82.199 362.930,82.235 363.281,82.278 363.281 C 83.065 363.281,83.550 362.722,83.165 362.259 C 82.537 361.502,82.199 361.586,82.199 362.500 M97.266 372.070 C 97.533 372.393,98.028 372.656,98.365 372.656 C 98.855 372.656,98.826 372.542,98.219 372.083 C 97.227 371.332,96.647 371.325,97.266 372.070 M299.609 376.628 C 299.609 377.140,299.829 377.358,300.261 377.275 C 301.227 377.087,301.322 376.302,300.407 376.063 C 299.802 375.905,299.609 376.042,299.609 376.628 M153.385 397.135 C 152.854 397.667,153.153 398.047,154.102 398.047 C 154.709 398.047,155.078 397.826,155.078 397.461 C 155.078 396.875,153.877 396.644,153.385 397.135 M244.922 397.434 C 244.922 397.833,245.275 398.047,245.931 398.047 C 247.155 398.047,247.021 397.130,245.770 396.945 C 245.207 396.863,244.922 397.027,244.922 397.434 " stroke="none" fill="#f3f3f3" fill-rule="evenodd"></path><path id="path2" d="M185.352 1.164 C 182.988 1.343,179.209 1.758,176.953 2.088 C 174.697 2.417,171.797 2.802,170.508 2.943 C 169.219 3.084,166.816 3.535,165.169 3.944 C 163.522 4.353,161.676 4.688,161.067 4.688 C 160.458 4.688,158.216 5.119,156.086 5.647 C 153.956 6.174,152.078 6.523,151.915 6.421 C 151.751 6.320,151.506 6.416,151.371 6.634 C 151.236 6.853,150.741 7.032,150.270 7.034 C 149.799 7.035,148.975 7.265,148.438 7.546 C 147.900 7.826,146.318 8.291,144.922 8.578 C 143.525 8.866,142.207 9.228,141.992 9.383 C 141.777 9.538,140.679 9.897,139.551 10.180 C 138.423 10.463,137.500 10.837,137.500 11.011 C 137.500 11.186,137.262 11.328,136.971 11.328 C 136.680 11.328,134.281 12.046,131.640 12.922 C 127.279 14.370,125.893 14.920,120.898 17.183 C 120.039 17.573,118.633 18.189,117.773 18.552 C 114.800 19.811,104.400 25.084,101.175 26.970 C 99.398 28.009,98.461 28.799,98.711 29.050 C 98.847 29.186,98.523 29.297,97.990 29.297 C 97.458 29.297,96.641 29.652,96.175 30.086 C 95.709 30.520,95.251 30.828,95.158 30.770 C 95.064 30.712,94.401 31.104,93.685 31.641 C 92.969 32.178,91.899 32.828,91.309 33.087 C 90.718 33.345,90.234 33.740,90.234 33.966 C 90.234 34.191,89.872 34.375,89.430 34.375 C 88.988 34.375,88.734 34.551,88.867 34.766 C 89.000 34.980,88.829 35.156,88.487 35.156 C 88.146 35.156,87.765 35.420,87.641 35.742 C 87.518 36.064,87.153 36.328,86.831 36.328 C 86.271 36.328,84.673 37.453,83.008 39.021 C 82.578 39.426,81.699 40.024,81.055 40.351 C 80.410 40.678,79.367 41.489,78.736 42.153 C 78.104 42.816,77.364 43.359,77.089 43.359 C 76.815 43.359,76.408 43.699,76.186 44.114 C 75.964 44.529,75.430 44.981,75.000 45.117 C 74.570 45.254,74.219 45.605,74.219 45.898 C 74.219 46.192,73.823 46.553,73.340 46.702 C 72.856 46.850,72.171 47.258,71.817 47.607 C 71.462 47.956,70.168 49.033,68.941 50.000 C 66.483 51.936,54.162 64.091,51.882 66.828 C 51.091 67.778,50.004 69.052,49.467 69.660 C 48.929 70.267,47.906 71.487,47.194 72.370 C 46.481 73.253,45.283 74.712,44.531 75.613 C 42.018 78.623,40.914 80.035,40.475 80.803 C 40.235 81.223,39.204 82.624,38.184 83.917 C 37.163 85.211,36.328 86.449,36.328 86.670 C 36.328 86.890,36.108 87.211,35.840 87.383 C 35.571 87.555,35.176 88.000,34.961 88.372 C 34.746 88.745,33.134 91.294,31.379 94.036 C 29.624 96.779,27.766 99.814,27.249 100.781 C 26.732 101.748,25.925 103.154,25.455 103.906 C 22.934 107.941,16.603 121.587,13.856 128.906 C 12.848 131.592,11.881 134.141,11.707 134.570 C 10.320 137.995,6.949 149.574,5.794 154.883 C 5.373 156.816,4.761 159.629,4.433 161.133 C 4.105 162.637,3.671 164.922,3.467 166.211 C 3.264 167.500,2.928 169.609,2.721 170.898 C 1.815 176.544,1.159 183.967,0.917 191.309 C 0.774 195.659,0.509 199.219,0.329 199.219 C -0.104 199.219,-0.099 202.240,0.334 202.409 C 0.518 202.480,0.776 205.879,0.908 209.961 C 1.039 214.043,1.315 218.701,1.522 220.313 C 1.728 221.924,2.101 225.000,2.350 227.148 C 2.876 231.688,3.904 237.406,5.337 243.750 C 6.317 248.090,6.740 249.797,8.023 254.590 C 8.695 257.098,12.696 269.291,13.247 270.508 C 13.441 270.938,14.038 272.432,14.572 273.828 C 15.107 275.225,15.983 277.334,16.518 278.516 C 17.053 279.697,17.878 281.543,18.351 282.617 C 19.874 286.075,24.982 296.143,25.784 297.270 C 26.212 297.871,26.562 298.453,26.563 298.563 C 26.563 299.239,33.926 310.879,37.483 315.827 C 40.163 319.554,45.537 326.497,47.003 328.125 C 47.487 328.662,49.007 330.420,50.382 332.031 C 70.188 355.238,101.494 376.691,130.859 387.179 C 132.041 387.601,133.359 388.095,133.789 388.276 C 134.219 388.458,134.922 388.695,135.352 388.804 C 135.781 388.912,137.100 389.357,138.281 389.793 C 142.779 391.451,154.899 394.608,160.938 395.695 C 161.904 395.869,164.189 396.286,166.016 396.621 C 192.076 401.405,218.635 400.534,247.049 393.964 C 256.391 391.804,271.034 386.928,278.711 383.422 C 280.215 382.735,282.236 381.838,283.203 381.429 C 288.162 379.329,299.081 373.429,305.469 369.398 C 311.470 365.610,312.111 365.180,316.342 362.109 C 318.561 360.498,320.650 359.004,320.983 358.789 C 321.316 358.574,322.137 357.896,322.806 357.283 C 323.476 356.669,324.481 355.878,325.040 355.525 C 325.957 354.946,327.709 353.451,333.782 348.066 C 351.351 332.487,368.000 310.510,378.780 288.667 C 380.612 284.953,381.414 283.238,383.887 277.734 C 392.217 259.203,398.446 231.681,399.101 210.518 C 399.236 206.168,399.502 202.734,399.704 202.734 C 399.914 202.734,399.971 201.620,399.840 200.098 C 399.716 198.647,399.441 194.297,399.230 190.430 C 398.688 180.499,396.988 166.799,395.499 160.352 C 395.152 158.848,394.553 156.211,394.169 154.492 C 393.159 149.973,392.137 145.988,391.815 145.313 C 391.661 144.990,391.217 143.540,390.827 142.090 C 390.437 140.640,389.969 139.453,389.786 139.453 C 389.603 139.453,389.453 138.936,389.453 138.304 C 389.453 137.672,389.277 137.047,389.063 136.914 C 388.848 136.781,388.672 136.241,388.672 135.714 C 388.672 135.186,388.502 134.450,388.294 134.077 C 388.087 133.704,387.458 132.168,386.897 130.664 C 384.890 125.284,384.303 123.861,382.259 119.419 C 381.489 117.745,380.859 116.289,380.859 116.183 C 380.859 115.687,375.758 105.861,372.966 100.977 C 370.769 97.135,370.622 96.900,367.676 92.519 C 366.118 90.203,364.844 88.225,364.844 88.123 C 364.844 87.929,361.815 83.675,359.186 80.176 C 358.339 79.048,357.507 78.125,357.338 78.125 C 357.170 78.125,357.031 77.901,357.031 77.626 C 357.031 77.352,356.504 76.550,355.859 75.844 C 355.215 75.139,354.688 74.484,354.688 74.390 C 354.688 74.296,354.380 73.900,354.004 73.511 C 353.628 73.121,352.617 71.945,351.758 70.896 C 350.898 69.847,349.495 68.188,348.638 67.209 C 346.010 64.205,333.917 52.240,331.641 50.391 C 330.459 49.432,328.882 48.051,328.135 47.322 C 327.389 46.594,326.335 45.715,325.792 45.370 C 325.249 45.025,323.486 43.674,321.875 42.367 C 320.264 41.061,318.682 39.872,318.359 39.724 C 318.037 39.576,316.543 38.485,315.039 37.299 C 313.535 36.112,311.821 34.926,311.230 34.663 C 310.640 34.400,310.156 34.073,310.156 33.936 C 310.156 33.800,309.585 33.454,308.887 33.168 C 308.188 32.881,307.205 32.268,306.701 31.806 C 306.197 31.343,304.352 30.130,302.600 29.109 C 300.848 28.089,298.975 26.951,298.438 26.580 C 293.717 23.320,267.390 11.719,264.712 11.719 C 264.527 11.719,263.822 11.465,263.145 11.155 C 261.528 10.415,257.764 9.223,255.078 8.601 C 253.896 8.327,252.402 7.881,251.758 7.611 C 249.875 6.820,247.861 6.250,246.951 6.250 C 246.017 6.250,242.824 5.538,241.602 5.057 C 241.172 4.888,239.941 4.647,238.867 4.522 C 237.793 4.396,234.980 3.948,232.617 3.526 C 219.489 1.181,198.814 0.147,185.352 1.164 M275.195 101.263 C 297.654 106.664,313.986 124.210,317.470 146.680 C 318.218 151.509,318.658 239.639,317.975 248.047 C 315.862 274.071,299.206 293.256,273.828 298.893 L 269.727 299.805 200.195 299.805 C 127.602 299.805,129.438 299.842,123.242 298.225 C 102.272 292.749,87.348 276.749,82.744 254.804 C 81.862 250.598,81.859 250.456,81.652 205.469 L 81.445 160.352 76.936 153.516 C 72.636 146.996,57.159 123.088,52.842 116.296 C 48.196 108.987,50.083 102.129,57.227 100.360 C 57.871 100.201,106.211 100.106,164.648 100.150 L 270.898 100.230 275.195 101.263 " stroke="none" fill="#3b61cc" fill-rule="evenodd"></path><path id="path3" d="M198.145 0.678 C 199.165 0.758,200.835 0.758,201.855 0.678 C 202.876 0.597,202.041 0.531,200.000 0.531 C 197.959 0.531,197.124 0.597,198.145 0.678 M81.931 39.420 C 80.325 40.449,80.103 40.811,81.518 40.092 C 82.203 39.743,82.872 39.282,83.006 39.065 C 83.319 38.558,83.226 38.589,81.931 39.420 M61.499 56.738 L 60.352 58.008 61.621 56.861 C 62.804 55.791,63.070 55.469,62.768 55.469 C 62.701 55.469,62.130 56.040,61.499 56.738 M339.453 57.544 C 339.453 57.611,340.024 58.183,340.723 58.814 L 341.992 59.961 340.845 58.691 C 339.775 57.508,339.453 57.242,339.453 57.544 M54.468 63.770 L 53.320 65.039 54.590 63.892 C 55.773 62.822,56.039 62.500,55.737 62.500 C 55.670 62.500,55.099 63.071,54.468 63.770 M399.219 194.638 C 399.219 196.058,399.401 197.332,399.624 197.470 C 399.897 197.639,399.943 196.855,399.765 195.051 C 399.423 191.575,399.219 191.421,399.219 194.638 M0.508 197.266 C 0.508 198.447,0.581 198.931,0.670 198.340 C 0.760 197.749,0.760 196.782,0.670 196.191 C 0.581 195.601,0.508 196.084,0.508 197.266 M0.332 204.004 C 0.257 204.917,0.300 206.543,0.427 207.617 C 0.613 209.183,0.671 208.854,0.720 205.957 C 0.784 202.201,0.570 201.124,0.332 204.004 M399.357 206.055 C 399.356 207.988,399.422 208.829,399.504 207.922 C 399.586 207.015,399.587 205.433,399.506 204.406 C 399.426 203.379,399.359 204.121,399.357 206.055 " stroke="none" fill="#ff99ff" fill-rule="evenodd"></path><path id="path4" d="" stroke="none" fill="#99ffff" fill-rule="evenodd"></path></g></svg>